<svg width="56" height="56" viewBox="0 0 56 56" fill="none" xmlns="http://www.w3.org/2000/svg">
<rect width="56" height="56" rx="5" fill="white"/>
<path fill-rule="evenodd" clip-rule="evenodd" d="M26.7913 37.75C33.3957 37.75 38.7497 32.3961 38.7497 25.7916C38.7497 19.1872 33.3957 13.8333 26.7913 13.8333C20.1869 13.8333 14.833 19.1872 14.833 25.7916C14.833 32.3961 20.1869 37.75 26.7913 37.75ZM26.7913 17.9583C25.7627 17.9583 24.744 18.1609 23.7937 18.5546C22.8433 18.9483 21.9797 19.5253 21.2523 20.2526C20.5249 20.98 19.9479 21.8436 19.5543 22.794C19.1606 23.7443 18.958 24.763 18.958 25.7916C18.958 26.3439 19.4057 26.7916 19.958 26.7916C20.5103 26.7916 20.958 26.3439 20.958 25.7916C20.958 25.0256 21.1089 24.2671 21.402 23.5593C21.6952 22.8516 22.1249 22.2085 22.6666 21.6669C23.2082 21.1252 23.8513 20.6955 24.559 20.4023C25.2668 20.1092 26.0253 19.9583 26.7913 19.9583C27.3436 19.9583 27.7913 19.5106 27.7913 18.9583C27.7913 18.406 27.3436 17.9583 26.7913 17.9583Z" fill="#656565"/>
<path d="M42.1667 41.1667L38.75 37.75" stroke="#656565" stroke-width="2" stroke-linecap="round"/>
</svg>
