<svg width="638" height="720" viewBox="0 0 638 720" fill="none" xmlns="http://www.w3.org/2000/svg">
<g clip-path="url(#clip0_504_630)">
<path d="M640 0H0V720H640V0Z" fill="#F7D874"/>
<path d="M640 176.84H0V205.64H640V176.84Z" fill="#FCE1E0"/>
<path d="M640 310.55H155.32V169.23C155.32 158.18 146.37 149.23 135.32 149.23H0V720H640V310.55Z" fill="#F4C429"/>
<path d="M0 416.45H277.3V487.88H190.84L182.79 586.78H0V416.45Z" fill="#F1842B"/>
<path d="M640 480H202.79C191.74 480 182.79 488.95 182.79 500V578.9H0V720H640V480Z" fill="#EB5D55"/>
<path d="M426.75 720V683.52C426.75 672.47 417.8 663.52 406.75 663.52H0V720H426.75Z" fill="#F4C429"/>
<path d="M223.32 73.16H0V45.8H223.32C228.84 45.8 233.32 50.28 233.32 55.8V63.16C233.32 68.68 228.84 73.16 223.32 73.16Z" fill="#FCE1E0"/>
<path d="M640 117.8H416.68C411.16 117.8 406.68 113.32 406.68 107.8V100.44C406.68 94.92 411.16 90.44 416.68 90.44H640V117.8Z" fill="#FCE1E0"/>
<path d="M74.53 77.06L54.9 158.3H98.9L74.53 77.06Z" fill="#F1842B"/>
<path d="M76.8999 191.24C89.9228 191.24 100.48 180.683 100.48 167.66C100.48 154.637 89.9228 144.08 76.8999 144.08C63.8771 144.08 53.3199 154.637 53.3199 167.66C53.3199 180.683 63.8771 191.24 76.8999 191.24Z" fill="#F1842B"/>
<path d="M0 75.32L19.84 149.23H0V75.32Z" fill="#F1842B"/>
<path d="M481.16 216.66H443.36V310.77H481.16V216.66Z" fill="#F09A59"/>
<path d="M462.26 184.99L443.36 216.66H481.16" fill="#F09A59"/>
<path d="M614.61 216.66H481.16V310.77H614.61V216.66Z" fill="#C16C33"/>
<path d="M595.64 184.99L614.61 216.66H481.16L462.26 184.99" fill="#C16C33"/>
<path d="M410.749 485.86L448.549 485.86L448.549 391.75L410.749 391.75L410.749 485.86Z" fill="#EA5536"/>
<path d="M429.65 360.07L448.55 391.74H410.75" fill="#EA5536"/>
<path d="M277.296 485.86L410.746 485.86L410.746 391.75L277.296 391.75L277.296 485.86Z" fill="#C14118"/>
<path d="M296.27 360.07L277.3 391.74H410.75L429.65 360.07" fill="#C14118"/>
<path d="M280.59 539.72C308.823 539.72 331.71 519.734 331.71 495.08C331.71 470.426 308.823 450.44 280.59 450.44C252.357 450.44 229.47 470.426 229.47 495.08C229.47 519.734 252.357 539.72 280.59 539.72Z" fill="#EB5D55"/>
<path d="M375.63 539.72C403.863 539.72 426.75 519.734 426.75 495.08C426.75 470.426 403.863 450.44 375.63 450.44C347.397 450.44 324.51 470.426 324.51 495.08C324.51 519.734 347.397 539.72 375.63 539.72Z" fill="#EB5D55"/>
<path d="M477.87 539.72C506.103 539.72 528.99 519.734 528.99 495.08C528.99 470.426 506.103 450.44 477.87 450.44C449.637 450.44 426.75 470.426 426.75 495.08C426.75 519.734 449.637 539.72 477.87 539.72Z" fill="#EB5D55"/>
<path d="M0 695.24L19.12 663.52H28.48L0 706.76" fill="#F1842B"/>
<path d="M13.1801 720L47.5601 663.52H55.8401L22.1801 720" fill="#F1842B"/>
<path d="M42.16 720L76.54 663.52H84.82L51.16 720" fill="#F1842B"/>
<path d="M73.3 720L107.68 663.52H115.96L82.3 720" fill="#F1842B"/>
<path d="M102.82 720L137.2 663.52H145.48L111.82 720" fill="#F1842B"/>
<path d="M135.58 720L169.96 663.52H178.24L144.58 720" fill="#F1842B"/>
<path d="M167.44 720L201.82 663.52H210.1L176.44 720" fill="#F1842B"/>
<path d="M199.66 720L234.04 663.52H242.32L208.66 720" fill="#F1842B"/>
<path d="M232.42 720L266.8 663.52H275.08L241.42 720" fill="#F1842B"/>
<path d="M267.16 720L301.54 663.52H309.82L276.16 720" fill="#F1842B"/>
<path d="M301.87 720L336.25 663.52H344.53L310.87 720" fill="#F1842B"/>
<path d="M335.98 719.98L370.36 663.49H378.64L344.98 719.98" fill="#F1842B"/>
<path d="M371.47 720L405.71 663.47L413.65 664.74L380.47 720" fill="#F1842B"/>
<path d="M407.56 719.98L426.75 687.08V700.76L415.24 720" fill="#F1842B"/>
<path d="M0 632.36L22.12 663.52H32.2L0 617.48" fill="#A33734"/>
<path d="M0 586.78L55.84 663.52H66.28L5.08 578.9H0V586.78Z" fill="#A33734"/>
<path d="M89.64 663.52L27.53 578.9H39.33L99.44 663.52" fill="#A33734"/>
<path d="M128.38 663.52L66.28 578.9H78.07L138.19 663.52" fill="#A33734"/>
<path d="M170.01 663.52L107.9 578.9H119.69L179.82 663.52" fill="#A33734"/>
<path d="M216.8 663.52L154.71 578.9H166.49L226.62 663.52" fill="#A33734"/>
<path d="M182.79 553.64L253.75 663.47H264.52L182.79 535.4V553.64Z" fill="#A33734"/>
<path d="M294.28 663.52L183.98 493.19L190.66 484.1L303.88 663.47L294.28 663.52Z" fill="#A33734"/>
<path d="M325.45 663.52L227.55 480H232.46L235.84 473.48L333.62 663.52H325.45Z" fill="#A33734"/>
<path d="M358.14 663.52L268.74 451.65L280.59 450.44L366.8 663.52" fill="#A33734"/>
<path d="M388.47 663.52L335.17 467.8L344.02 459.99L397.23 663.52H388.47Z" fill="#A33734"/>
<path d="M375.63 450.44L439.24 720H449.56L385.14 451.42L378.64 450.44" fill="#A33734"/>
<path d="M427.99 485.25L477.87 719.98H487.84L434.13 471.18L427.99 485.25Z" fill="#A33734"/>
<path d="M513.32 720L467.93 451.79L477.87 450.44L524.2 719.98L513.32 720Z" fill="#A33734"/>
<path d="M530.41 480L537.09 479.08L542.57 479.6L559.8 719.99L549.92 719.98L530.41 480Z" fill="#A33734"/>
<path d="M588.71 705.38H603.83L595.55 465L585 465.16L588.71 705.38Z" fill="#A33734"/>
<path d="M640 480H630.76V720H640V480Z" fill="#A33734"/>
<path d="M589.51 366.84L562.38 479.08H623.18L589.51 366.84Z" fill="#FCE1E0"/>
<path d="M592.78 524.6C610.773 524.6 625.36 510.013 625.36 492.02C625.36 474.027 610.773 459.44 592.78 459.44C574.787 459.44 560.2 474.027 560.2 492.02C560.2 510.013 574.787 524.6 592.78 524.6Z" fill="#FCE1E0"/>
<path d="M475.5 638.77L455.87 720H499.87L475.5 638.77Z" fill="#F7D874"/>
<path d="M590.99 638.77L571.36 720H615.36L590.99 638.77Z" fill="#F7D874"/>
<path d="M532.95 679.38L513.32 720H557.32L532.95 679.38Z" fill="#F7D874"/>
<path d="M80.14 652.15C78.73 640.89 73.2799 617.99 55.57 604.2C44.16 595.31 19.07 589.95 16.2 592.36C13.5 594.62 15.58 623.72 29.52 637.95C45.41 654.16 80.4 654.22 80.14 652.15Z" fill="#F7D874"/>
<path d="M92.74 652.22C94.15 640.96 99.6 618.06 117.31 604.27C128.72 595.38 154.84 589.63 156.68 592.43C158.74 595.56 157.3 623.79 143.36 638.02C127.47 654.23 92.48 654.29 92.74 652.22Z" fill="#F7D874"/>
<path d="M87.25 611.07C104.984 611.07 119.36 596.694 119.36 578.96C119.36 561.226 104.984 546.85 87.25 546.85C69.5162 546.85 55.14 561.226 55.14 578.96C55.14 596.694 69.5162 611.07 87.25 611.07Z" fill="#F4C429"/>
<path d="M119.09 393.76C119.09 393.76 120.52 385.47 116.85 381.2C114.22 378.13 110.76 377.19 109.67 376.94C103.45 375.49 100.58 379.33 94.41 379.63C88.09 379.94 81.15 376.4 77.8099 371.78C70.34 361.45 81.49 346.61 76.24 342.61C72.09 339.46 60.37 345.09 54.93 354.05C49.14 363.58 50.08 377.49 56.05 380.97C61.02 383.87 70.41 381.42 70.41 381.42C70.41 381.42 67.64 390.93 70.19 398.02C72.48 404.41 81.06 409.91 88.14 408.79C99.1 407.06 111.02 390.84 111.02 390.84L119.09 393.76Z" fill="#FCE1E0"/>
<path d="M80.44 406.76H78.3V416.45H80.44V406.76Z" fill="#FCE1E0"/>
<path d="M88.51 406.76H86.37V416.45H88.51V406.76Z" fill="#FCE1E0"/>
<path d="M133.57 394.01C133.57 394.01 132.13 385.68 135.82 381.39C138.47 378.31 141.94 377.36 143.03 377.11C149.28 375.66 152.16 379.51 158.36 379.82C164.71 380.13 171.68 376.57 175.04 371.93C182.55 361.55 171.34 346.63 176.62 342.62C180.79 339.45 192.57 345.12 198.04 354.12C203.86 363.7 202.92 377.67 196.91 381.17C191.92 384.08 182.48 381.62 182.48 381.62C182.48 381.62 185.26 391.17 182.71 398.3C180.41 404.72 171.78 410.24 164.68 409.12C153.67 407.38 141.69 391.09 141.69 391.09L133.57 394.01Z" fill="#FCE1E0"/>
<path d="M172.406 416.812L174.556 416.812L174.556 407.072L172.406 407.072L172.406 416.812Z" fill="#FCE1E0"/>
<path d="M164.295 416.812L166.445 416.812L166.445 407.072L164.295 407.072L164.295 416.812Z" fill="#FCE1E0"/>
<path d="M304.46 167.66H265.77V172.08H304.46V167.66Z" fill="#616160"/>
<path d="M261.03 310.58L275.13 172.08H270.93L257.82 310.58H261.03Z" fill="#616160"/>
<path d="M309.9 310.78L295.81 172.28H300.01L313.12 310.78H309.9Z" fill="#616160"/>
<path d="M273.18 191.24L272.74 195.56L301.77 230.81V225.32L273.18 191.24Z" fill="#616160"/>
<path d="M298.14 192.69L298.59 197.24L268.8 234.29V228.52L298.14 192.69Z" fill="#616160"/>
<path d="M286.23 139.91C288.135 139.91 289.68 138.365 289.68 136.46C289.68 134.555 288.135 133.01 286.23 133.01C284.325 133.01 282.78 134.555 282.78 136.46C282.78 138.365 284.325 139.91 286.23 139.91Z" fill="#616160"/>
<path d="M281.91 143.32C283.28 144.27 283.96 145.94 283.62 147.58L281.13 159.83C280.47 163.06 276.59 164.4 274.09 162.25L267.51 156.62C265.46 154.86 265.59 151.64 267.79 150.07L277.11 143.37C278.53 142.34 280.46 142.32 281.91 143.32Z" fill="#616160"/>
<path d="M290.13 142.06C288.76 143.01 288.08 144.68 288.42 146.32L290.91 158.57C291.57 161.8 295.45 163.14 297.95 160.99L304.53 155.36C306.58 153.6 306.45 150.38 304.25 148.81L294.93 142.11C293.5 141.08 291.58 141.06 290.13 142.06Z" fill="#616160"/>
<path d="M290.55 129.2C289.18 128.25 288.5 126.58 288.84 124.94L291.33 112.69C291.99 109.46 295.87 108.12 298.37 110.27L304.95 115.9C307 117.66 306.87 120.88 304.67 122.45L295.35 129.15C293.93 130.18 292 130.2 290.55 129.2Z" fill="#616160"/>
<path d="M281.38 129.54C282.85 128.75 283.7 127.15 283.55 125.49L282.41 113.04C282.11 109.76 278.39 108.01 275.67 109.86L268.51 114.74C266.28 116.26 266.06 119.48 268.07 121.29L276.6 128.97C277.92 130.16 279.83 130.38 281.38 129.54Z" fill="#616160"/>
<path d="M279.13 137.18C279.26 135.52 278.39 133.94 276.91 133.16L265.84 127.36C262.92 125.83 259.43 128 259.51 131.29L259.72 139.95C259.79 142.65 262.37 144.58 264.98 143.87L276.06 140.88C277.76 140.42 278.99 138.94 279.13 137.18Z" fill="#616160"/>
<path d="M294.15 136.98C293.89 135.33 294.63 133.69 296.04 132.8L306.6 126.12C309.38 124.36 313.04 126.24 313.22 129.53L313.71 138.18C313.86 140.88 311.45 143.01 308.79 142.52L297.5 140.43C295.78 140.1 294.43 138.72 294.15 136.98Z" fill="#616160"/>
<path d="M309.97 287.78C309.97 287.78 308.53 279.45 312.22 275.16C314.87 272.08 318.34 271.13 319.43 270.88C325.68 269.43 328.56 273.28 334.76 273.59C341.11 273.9 348.08 270.34 351.44 265.7C358.95 255.32 347.74 240.4 353.02 236.39C357.19 233.22 368.97 238.89 374.44 247.89C380.26 257.47 379.32 271.44 373.31 274.94C368.32 277.85 358.88 275.39 358.88 275.39C358.88 275.39 361.66 284.94 359.11 292.07C356.81 298.49 348.18 304.01 341.08 302.89C330.07 301.15 318.09 284.86 318.09 284.86L309.97 287.78Z" fill="#FCE1E0"/>
<path d="M348.806 310.582L350.956 310.582L350.956 300.842L348.806 300.842L348.806 310.582Z" fill="#FCE1E0"/>
<path d="M340.695 310.582L342.845 310.582L342.845 300.842L340.695 300.842L340.695 310.582Z" fill="#FCE1E0"/>
<path d="M436.019 298.817C437.773 291.201 435.241 284.117 430.365 282.995C425.489 281.872 420.115 287.135 418.361 294.751C416.607 302.366 419.139 309.45 424.015 310.573C428.891 311.696 434.265 306.432 436.019 298.817Z" fill="#E2CFCF"/>
<path d="M420.204 309.924C424.836 308.031 426.194 300.632 423.237 293.398C420.281 286.164 414.13 281.834 409.498 283.727C404.866 285.62 403.507 293.019 406.464 300.253C409.42 307.487 415.572 311.817 420.204 309.924Z" fill="#FCE1E0"/>
<path d="M172.966 309.916C177.598 308.023 178.956 300.624 176 293.39C173.043 286.156 166.892 281.826 162.26 283.719C157.628 285.612 156.27 293.011 159.226 300.245C162.182 307.479 168.334 311.809 172.966 309.916Z" fill="#FCE1E0"/>
<path d="M244.966 416.032C249.598 414.139 250.957 406.74 248 399.506C245.044 392.271 238.892 387.941 234.26 389.834C229.629 391.727 228.27 399.126 231.227 406.36C234.183 413.595 240.334 417.925 244.966 416.032Z" fill="#E2CFCF"/>
<path d="M263.22 404.9C264.951 397.279 262.398 390.203 257.518 389.096C252.638 387.988 247.28 393.268 245.55 400.889C243.82 408.51 246.373 415.586 251.252 416.694C256.132 417.802 261.49 412.522 263.22 404.9Z" fill="#FCE1E0"/>
<path d="M180.95 567.697C184.165 560.573 183.073 553.131 178.512 551.073C173.951 549.015 167.648 553.121 164.434 560.244C161.22 567.367 162.311 574.81 166.872 576.868C171.433 578.926 177.736 574.82 180.95 567.697Z" fill="#FCE1E0"/>
</g>
<defs>
<clipPath id="clip0_504_630">
<path d="M0 20C0 8.95432 8.95431 0 20 0H640V720H20C8.95431 720 0 711.046 0 700V20Z" fill="white"/>
</clipPath>
</defs>
</svg>
